PathFileType	4	(X/Y/Z)	D:\Share\Shared_Data\Ergonomics\Sit To Stand Pertubation\S1\Unperturbed_NoHarness.trc
DataRate	CameraRate	NumFrames	NumMarkers	Units	OrigDataRate	OrigDataStartFrame	OrigNumFrames	
100	100	8	18	m	100	3174	261
Frame#	Time	R_Thigh_Med			R_ASIS			R_Pelvis			V_Sacral			L_Pelvis			L_ASIS			Clavical			R_Acromium			L_Acromium			Sternum			Torso			R_Thigh_Lat			R_Thigh			R_Shank_Med			R_Shank_Lat			R_Shank			R_Heel			R_Toe			
		X1	Y1	Z1	X2	Y2	Z2	X3	Y3	Z3	X4	Y4	Z4	X5	Y5	Z5	X6	Y6	Z6	X7	Y7	Z7	X8	Y8	Z8	X9	Y9	Z9	X10	Y10	Z10	X11	Y11	Z11	X12	Y12	Z12	X13	Y13	Z13	X14	Y14	Z14	X15	Y15	Z15	X16	Y16	Z16	X17	Y17	Z17	X18	Y18	Z18	

3174	31.73	0.34284534	0.41920682	0.0072721109	0.42333575	0.89215314	0.084160934	0.34503757	0.9074425	0.12679112	0.25008521	0.90279132	-0.025600037	0.3532984	0.90809253	-0.17549239	0.44070804	0.90102216	-0.11536786	0.45579871	1.2470431	-0.021924112	0.39382364	1.3228586	0.12585306	0.34844974	1.2762863	-0.21788535	0.44067578	1.2616559	0.080625877	0.45055841	1.252886	-0.080873833	0.37425089	0.43586389	0.14211273	0.43903137	0.60813586	0.085907944	0.31654388	0.098853081	0.068088226	0.29393185	0.10017558	0.14876923	0.33016885	0.30921094	0.16308211	0.24433099	0.033470451	0.092708893	0.44989093	0.043899132	0.12093686
3175	31.74	0.34156918	0.41953708	0.0077649097	0.42492676	0.89271967	0.084072212	0.34654141	0.90786334	0.12661897	0.25199419	0.90326251	-0.025876978	0.35515421	0.9084458	-0.17567175	0.44247684	0.90156537	-0.11540431	0.45561115	1.2478513	-0.022087364	0.3932132	1.3233557	0.12568021	0.34817542	1.2766525	-0.21811348	0.44034909	1.2623579	0.080464211	0.45038162	1.2536509	-0.081072647	0.37277066	0.43621753	0.14269302	0.43909079	0.6078219	0.086359955	0.31639688	0.099052513	0.068206718	0.29374588	0.10019622	0.14884236	0.32908594	0.30939355	0.1634536	0.24435654	0.033284901	0.092525909	0.44988306	0.043911018	0.12094912
3176	31.75	0.34036105	0.41985052	0.008241601	0.42650739	0.89324011	0.083990425	0.34800876	0.90823999	0.12645081	0.25385898	0.90366125	-0.026134527	0.35696109	0.90874292	-0.17583987	0.4442041	0.90205817	-0.11543482	0.45541577	1.2485906	-0.022257338	0.39261847	1.3237836	0.12550659	0.34786633	1.2769663	-0.21833893	0.44002228	1.2629895	0.080296768	0.45019101	1.2543472	-0.081275711	0.37135992	0.43656097	0.14328958	0.43918045	0.6075058	0.086839394	0.31626669	0.099249901	0.068325119	0.29356366	0.10022132	0.14891435	0.32805069	0.30956448	0.16382825	0.24439879	0.033117397	0.092355499	0.44987494	0.043929695	0.12096407
3177	31.76	0.33922028	0.42014804	0.0087026968	0.42808832	0.89371802	0.083915398	0.34944177	0.90857452	0.12628777	0.25567799	0.90399005	-0.026374266	0.35871802	0.90898352	-0.1759985	0.44588867	0.90250171	-0.11546203	0.45520892	1.2492639	-0.022434147	0.39203723	1.3241445	0.1253325	0.34752615	1.2772281	-0.21856146	0.43969345	1.2635514	0.080123764	0.44998355	1.2549775	-0.081483589	0.3700264	0.43689014	0.14389142	0.43930734	0.60719067	0.087334633	0.31615207	0.099444832	0.068441071	0.29338675	0.10025156	0.14898363	0.32707123	0.30972308	0.16420255	0.24444562	0.032991116	0.092214493	0.44986862	0.043948551	0.12097931
3178	31.77	0.33815775	0.42042081	0.0091518116	0.42968002	0.89415485	0.083846436	0.35084393	0.90886676	0.12613246	0.25744888	0.90425281	-0.026598204	0.36042349	0.90916772	-0.17614981	0.44752911	0.90289661	-0.11548824	0.45498709	1.2498733	-0.022617689	0.39146649	1.3244409	0.12515801	0.34715991	1.2774366	-0.21877728	0.4393605	1.2640438	0.07994548	0.44975778	1.255545	-0.0816968	0.3687764	0.4372005	0.14448802	0.4394762	0.60687958	0.087832848	0.31605133	0.099636452	0.068552841	0.29321667	0.10028666	0.14904909	0.32615323	0.30986899	0.16457327	0.24448926	0.032913197	0.092108696	0.44986447	0.043964252	0.12099374
3179	31.78	0.33719376	0.42065195	0.0095954399	0.43129016	0.89454974	0.083782211	0.35221887	0.90911578	0.12598689	0.25916986	0.90445471	-0.026808756	0.36207587	0.90929675	-0.1762955	0.44912396	0.90324365	-0.11551546	0.45474811	1.2504205	-0.022807407	0.39090289	1.3246752	0.12498351	0.34677161	1.27759	-0.21898204	0.43902158	1.2644681	0.079762009	0.44951413	1.2560514	-0.081915375	0.36761328	0.43748566	0.14506807	0.43968854	0.60657593	0.088321213	0.3159628	0.099823196	0.068659302	0.29305508	0.10032584	0.14911005	0.32529895	0.31000226	0.16493694	0.24452614	0.032878407	0.092035622	0.44986215	0.043975422	0.12100722
3180	31.79	0.33635535	0.42081918	0.010042235	0.43292056	0.89490045	0.083720772	0.35357095	0.90931952	0.125853	0.26084024	0.90460156	-0.02700783	0.3636727	0.90937317	-0.17643674	0.45067157	0.90354218	-0.11554547	0.45449142	1.2509067	-0.023002481	0.39034335	1.324849	0.12480988	0.34636316	1.2776854	-0.21917433	0.43867493	1.264827	0.07957341	0.449254	1.2564996	-0.082138412	0.36653702	0.43773935	0.14562138	0.43994214	0.60628131	0.088788635	0.31588477	0.10000291	0.068759743	0.29290402	0.10036815	0.14916611	0.32450806	0.3101239	0.16528885	0.24455533	0.032876297	0.091989044	0.44986148	0.043981201	0.12101987
3181	31.8	0.33567181	0.42089728	0.01050211	0.43456509	0.89520459	0.083660103	0.35490512	0.9094765	0.1257332	0.26246036	0.90469983	-0.027195229	0.36521118	0.90940082	-0.17657416	0.45216943	0.9037901	-0.1155802	0.45421796	1.251333	-0.023202034	0.3897851	1.3249647	0.12463832	0.34593539	1.2777224	-0.21935553	0.43831845	1.2651235	0.079379829	0.44897888	1.2568928	-0.082364281	0.36554514	0.43795972	0.14614381	0.44023169	0.60599628	0.089226952	0.31581604	0.10017326	0.068853745	0.29276569	0.10041246	0.14921716	0.32377893	0.3102356	0.16562402	0.24457738	0.032895908	0.091961945	0.44986279	0.043980957	0.12103168
